<?xml version="1.0" encoding="UTF-8" standalone="no"?>
<!-- Created with Inkscape (http://www.inkscape.org/) -->
<svg
   xmlns:dc="http://purl.org/dc/elements/1.1/"
   xmlns:cc="http://creativecommons.org/ns#"
   xmlns:rdf="http://www.w3.org/1999/02/22-rdf-syntax-ns#"
   xmlns:svg="http://www.w3.org/2000/svg"
   xmlns="http://www.w3.org/2000/svg"
   xmlns:sodipodi="http://sodipodi.sourceforge.net/DTD/sodipodi-0.dtd"
   xmlns:inkscape="http://www.inkscape.org/namespaces/inkscape"
   version="1.0"
   width="542"
   height="164"
   id="svg3087"
   sodipodi:version="0.32"
   inkscape:version="0.46"
   sodipodi:docname="logo-uob.svg"
   inkscape:output_extension="org.inkscape.output.svg.inkscape">
  <metadata
     id="metadata3599">
    <rdf:RDF>
      <cc:Work
         rdf:about="">
        <dc:format>image/svg+xml</dc:format>
        <dc:type
           rdf:resource="http://purl.org/dc/dcmitype/StillImage" />
      </cc:Work>
    </rdf:RDF>
  </metadata>
  <sodipodi:namedview
     inkscape:window-height="696"
     inkscape:window-width="1024"
     inkscape:pageshadow="2"
     inkscape:pageopacity="0.0"
     guidetolerance="10.0"
     gridtolerance="10.0"
     objecttolerance="10.0"
     borderopacity="1.0"
     bordercolor="#666666"
     pagecolor="#ffffff"
     id="base"
     showgrid="false"
     inkscape:zoom="1.00369"
     inkscape:cx="271"
     inkscape:cy="13.187649"
     inkscape:window-x="-4"
     inkscape:window-y="-4"
     inkscape:current-layer="g3096" />
  <defs
     id="defs3187">
    <inkscape:perspective
       sodipodi:type="inkscape:persp3d"
       inkscape:vp_x="0 : 82 : 1"
       inkscape:vp_y="0 : 1000 : 0"
       inkscape:vp_z="542 : 82 : 1"
       inkscape:persp3d-origin="271 : 54.666667 : 1"
       id="perspective3601" />
  </defs>
  <title
     id="title3089">Bristol University Logo</title>
  <g
     id="g3091"
     xml:space="preserve"
     transform="translate(-16.9375,-333.76838)">
<clipPath
   id="clippath1"> 	<path
   d="M 0,634.957 L 0,792 L 542.832,792 L 542.832,634.957"
   id="path3094" />
</clipPath>
<g
   id="g3096"> 





















<g
   id="g4202"><g
     transform="translate(17.933824,-296.90442)"
     style="fill:#000000;fill-rule:nonzero;stroke-width:0;stroke-linecap:butt;stroke-linejoin:miter;stroke-miterlimit:10"
     id="g3098">
	<path
   style="fill:#000000"
   id="path3100"
   d="M 194.152,757.535 L 204.156,757.535 C 214.992,757.535 220.457,764.855 220.457,771.984 C 220.457,779.207 216.938,786.801 204.711,786.801 C 196.93,786.801 194.152,784.301 194.152,777.262 L 194.152,757.535 z M 186.469,779.945 C 186.469,785.785 184.984,787.543 177.395,787.543 L 175.262,787.543 L 175.262,789.301 L 209.156,789.301 C 224.07,789.301 229.164,779.023 229.164,771.707 C 229.164,764.484 224.07,758.832 215.367,756.238 L 215.367,756.051 C 221.57,754.941 225.922,750.035 225.922,744.758 C 225.922,740.309 224.07,737.156 220.273,734.477 C 216.938,732.066 209.809,730.859 201.656,730.859 C 199.895,730.859 192.859,730.953 187.762,731.141 C 185.078,731.234 178.688,731.605 176.094,731.691 L 176.094,733.453 L 179.336,733.453 C 185.816,733.453 186.469,736.23 186.469,741.512 L 186.469,779.945 z M 194.152,732.898 C 196.469,732.805 200.27,732.621 202.305,732.621 C 213.695,732.621 217.586,738.547 217.586,745.031 C 217.586,752.258 213.141,755.773 204.25,755.773 L 194.152,755.773 L 194.152,732.898" />
</g><g
     transform="translate(17.933824,-296.90442)"
     style="fill:#000000;fill-rule:nonzero;stroke-width:0;stroke-linecap:butt;stroke-linejoin:miter;stroke-miterlimit:10"
     id="g3102">
	<path
   style="fill:#000000"
   id="path3104"
   d="M 254.543,763.371 C 252.41,763.371 251.02,763.461 248.801,763.188 L 248.801,732.805 C 250.465,732.621 251.672,732.621 253.43,732.621 C 267.703,732.621 271.586,739.289 271.586,747.902 C 271.586,759.016 264.832,763.371 254.543,763.371 z M 322.98,733.453 L 322.98,731.691 L 300.473,731.691 L 300.473,733.453 C 305.656,733.73 307.422,735.117 307.422,740.121 L 307.422,779.578 C 307.422,785.598 306.273,787.164 300.977,787.512 C 293.91,787.141 290.91,784.367 285.844,779.305 L 278.531,771.984 C 274.184,767.633 271.406,765.035 267.977,762.352 C 275.57,760.129 280.289,754.293 280.289,747.348 C 280.289,737.898 272.605,730.859 255.469,730.859 C 249.445,730.859 247.594,730.953 243.797,731.141 C 240,731.324 234.348,731.691 232.129,731.691 L 232.129,733.453 L 234.164,733.453 C 239.535,733.453 241.113,735.117 241.113,740.863 L 241.113,779.856 C 241.113,786.063 239.164,787.543 233.703,787.543 L 232.129,787.543 L 232.129,789.301 L 258.344,789.301 L 258.344,787.543 L 256.211,787.543 C 251.02,787.543 248.801,786.152 248.801,780.598 L 248.801,764.941 C 250.281,765.035 251.484,765.133 253.523,765.133 C 256.027,765.133 257.508,765.035 259.824,764.941 C 262.051,766.426 265.297,769.109 269.367,773.188 L 275.48,779.305 C 283.484,787.316 286.902,789.848 301.984,789.301 L 322.98,789.301 L 322.98,787.543 C 316.59,787.543 315.109,785.691 315.109,780.227 L 315.109,740.957 C 315.109,734.754 317.145,733.453 322.98,733.453" />
</g><g
     transform="translate(17.933824,-296.90442)"
     style="fill:#000000;fill-rule:nonzero;stroke-width:0;stroke-linecap:butt;stroke-linejoin:miter;stroke-miterlimit:10"
     id="g3106">
	<path
   style="fill:#000000"
   id="path3108"
   d="M 329.277,775.227 C 331.227,783.469 337.703,788.285 344.93,788.285 C 351.137,788.285 357.711,784.672 357.711,777.356 C 357.711,764.016 327.98,759.945 327.98,743.738 C 327.98,736.047 335.02,730.305 344.469,730.305 C 352.242,730.305 353.82,732.621 357.063,732.621 C 357.805,732.621 358.172,732.434 358.73,731.691 L 360.211,731.691 L 361.785,743.457 L 360.211,743.457 C 357.617,736.789 351.691,732.531 345.301,732.531 C 339.188,732.531 334.926,736.047 334.926,741.234 C 334.926,754.387 364.656,757.91 364.656,774.945 C 364.656,784.023 356.598,790.785 345.762,790.785 C 340.668,790.785 334.188,788.285 332.891,788.285 C 332.059,788.285 331.406,788.746 331.035,789.301 L 329.465,789.301 L 327.52,775.227 L 329.277,775.227" />
</g><g
     transform="translate(17.933824,-296.90442)"
     style="fill:#000000;fill-rule:nonzero;stroke-width:0;stroke-linecap:butt;stroke-linejoin:miter;stroke-miterlimit:10"
     id="g3110">
	<path
   style="fill:#000000"
   id="path3112"
   d="M 400.316,780.785 C 400.316,785.785 401.98,787.543 407.629,787.543 L 411.063,787.543 L 411.063,789.301 L 381.883,789.301 L 381.883,787.543 L 385.313,787.543 C 390.961,787.543 392.625,785.785 392.625,780.785 L 392.625,735.031 L 376.512,735.031 C 372.809,735.031 371.141,737.156 369.746,745.309 L 368.082,745.309 L 369.563,730.305 L 371.32,730.305 C 371.422,730.859 371.789,731.234 372.344,731.414 C 372.898,731.605 373.551,731.691 374.195,731.691 L 418.742,731.691 C 420.043,731.691 421.434,731.414 421.617,730.305 L 423.375,730.305 L 424.859,745.309 L 423.188,745.309 C 421.805,737.156 420.137,735.031 416.434,735.031 L 400.316,735.031 L 400.316,780.785" />
</g><g
     transform="translate(17.933824,-296.90442)"
     style="fill:#000000;fill-rule:nonzero;stroke-width:0;stroke-linecap:butt;stroke-linejoin:miter;stroke-miterlimit:10"
     id="g3114">
	<path
   style="fill:#000000"
   id="path3116"
   d="M 492.672,758.926 C 492.672,742.254 477.668,730.305 460.164,730.305 C 440.438,730.305 426.262,743.363 426.262,761.793 C 426.262,779.117 441.551,790.785 459.699,790.785 C 477.668,790.785 492.672,777.633 492.672,758.926 z M 483.965,761.98 C 483.965,775.129 476.742,788.465 461.645,788.465 C 446.73,788.465 434.973,776.246 434.973,758.926 C 434.973,747.809 441.449,732.621 457.754,732.621 C 473.035,732.621 483.965,744.758 483.965,761.98" />
</g><g
     transform="translate(17.933824,-296.90442)"
     style="fill:#000000;fill-rule:nonzero;stroke-width:0;stroke-linecap:butt;stroke-linejoin:miter;stroke-miterlimit:10"
     id="g3118">
	<path
   style="fill:#000000"
   id="path3120"
   d="M 535.703,789.301 L 494.305,789.301 L 494.305,787.543 L 497.355,787.543 C 501.617,787.543 503.191,786.152 503.191,781.43 L 503.191,740.398 C 503.191,735.492 501.711,733.453 495.879,733.453 L 494.582,733.453 L 494.582,731.691 L 521.902,731.691 L 521.902,733.453 L 518.473,733.453 C 512.457,733.453 510.879,734.102 510.879,739.844 L 510.879,782.539 C 510.879,785.039 511.898,785.969 514.586,785.969 L 528.195,785.969 C 533.66,785.969 535.324,783.84 541.168,775.781 L 542.832,775.781 L 535.703,789.301" />
</g><g
     transform="translate(17.933824,-296.90442)"
     style="fill:#bf2f38;fill-rule:nonzero;stroke-width:0;stroke-linecap:butt;stroke-linejoin:miter;stroke-miterlimit:10;fill-opacity:1"
     id="g3122">
	<path
   style="fill:#bf2f38;fill-opacity:1"
   id="path3124"
   d="M 103.047,705.219 C 102.98,699.828 101.148,688.809 88.2539,682.555 C 101.348,686.715 107.648,697.781 108.289,706.035 C 122.039,708.777 134.242,715.246 154.055,708.414 L 154.121,708.371 C 154.121,708.371 128.051,708.609 117.148,700.723 C 122.781,700.934 129.262,699.66 131.387,696.473 C 133.648,693.078 133.883,689.57 139.461,689.391 C 142.594,689.289 153.219,690.082 154.332,674.48 C 150.934,680.219 147.25,682.59 141.691,681.172 C 138.141,680.27 131.66,677.551 127.027,683.086 C 123.203,687.652 119.098,690.027 112.547,689.32 C 115.168,685.777 154.227,635.062 154.227,635.062 C 154.227,635.062 104.188,675.223 101.426,677.562 C 100.895,670.23 103.09,667.539 106.027,664.316 C 108.434,661.68 112.613,658.109 109.285,650.574 C 106.598,644.484 106.949,640.801 114.281,634.957 C 108.438,635.383 99.5195,639.312 100.574,650.043 C 101.215,656.523 96.6211,657.086 94.9453,658.012 C 90.5898,660.422 90.0234,667.434 89.8789,672.887 C 89.3867,671.113 83.0469,643.863 80.8164,635.047 C 80.8164,635.051 80.8164,708.371 80.8164,708.371 L 80.9844,708.371 C 89.4766,705.027 96.5391,704.516 103.047,705.219" />
</g><g
     transform="translate(17.933824,-296.90442)"
     style="fill:#000000;fill-rule:nonzero;stroke-width:0;stroke-linecap:butt;stroke-linejoin:miter;stroke-miterlimit:10"
     id="g3126">
	<path
   style="fill:#000000"
   id="path3128"
   d="M 227.512,665.637 L 227.512,666.941 C 222.91,667.012 221.262,668.863 221.262,673.262 L 221.262,691.805 C 221.262,700.32 215.836,709.453 200.934,709.453 C 187.816,709.453 181.086,701.969 181.086,692.148 L 181.086,672.094 C 181.086,667.699 179.848,667.012 175.18,666.941 L 175.18,665.637 L 192.828,665.637 L 192.828,666.941 L 192.211,666.941 C 188.434,666.941 186.785,667.973 186.785,671.957 L 186.785,691.047 C 186.785,700.32 192.211,705.883 202.445,705.883 C 210.203,705.883 218.105,702.656 218.105,690.98 L 218.105,674.977 C 218.105,668.383 217.074,667.219 211.371,666.941 L 211.371,665.637 L 227.512,665.637" />
</g><g
     transform="translate(17.933824,-296.90442)"
     style="fill:#000000;fill-rule:nonzero;stroke-width:0;stroke-linecap:butt;stroke-linejoin:miter;stroke-miterlimit:10"
     id="g3130">
	<path
   style="fill:#000000"
   id="path3132"
   d="M 236.539,702.379 C 236.539,706.156 237.43,707.051 241.137,707.051 L 241.137,708.355 L 227.336,708.355 L 227.336,707.051 C 230.355,707.051 231.938,705.402 231.938,702.723 L 231.938,688.301 C 231.938,685.762 231.66,685.277 229.875,684.934 L 227.539,684.457 L 227.539,683.355 L 235.438,680.473 L 236.539,680.473 L 236.539,685.828 C 241.137,682.945 244.984,680.402 248.352,680.402 C 253.02,680.402 255.699,683.836 255.699,690.703 C 255.699,699.84 255.219,701.625 255.148,704.305 C 255.082,706.156 256.18,707.051 258.996,707.051 L 260.508,707.051 L 260.508,708.355 L 245.738,708.355 L 245.738,707.051 C 247.73,706.98 248.898,706.5 249.652,705.746 C 250.961,704.441 251.098,699.426 251.098,690.293 C 251.098,684.797 248.418,683.082 245.672,683.082 C 243.473,683.082 240.109,685.004 236.539,687.477 L 236.539,702.379" />
</g><g
     transform="translate(17.933824,-296.90442)"
     style="fill:#000000;fill-rule:nonzero;stroke-width:0;stroke-linecap:butt;stroke-linejoin:miter;stroke-miterlimit:10"
     id="g3134">
	<path
   style="fill:#000000"
   id="path3136"
   d="M 270.824,664.605 C 272.473,664.605 273.848,665.773 273.848,667.219 C 273.848,668.66 272.473,669.828 270.824,669.828 C 269.176,669.828 267.871,668.66 267.871,667.219 C 267.871,665.773 269.176,664.605 270.824,664.605 z M 273.641,703.137 C 273.641,705.539 274.945,707.051 278.586,707.051 L 278.586,708.355 L 263.34,708.355 L 263.34,707.051 C 267.527,707.051 269.039,705.676 269.039,702.035 L 269.039,688.234 C 269.039,685.555 268.695,685.211 266.91,684.867 L 263.684,684.25 L 263.684,683.148 L 272.609,680.059 L 273.641,680.059 L 273.641,703.137" />
</g><g
     transform="translate(17.933824,-296.90442)"
     style="fill:#000000;fill-rule:nonzero;stroke-width:0;stroke-linecap:butt;stroke-linejoin:miter;stroke-miterlimit:10"
     id="g3138">
	<path
   style="fill:#000000"
   id="path3140"
   d="M 294.27,708.973 L 284.313,686.172 C 283.277,683.77 282.387,682.945 281.289,682.738 L 279.156,682.395 L 279.156,681.16 L 293.172,681.16 L 293.172,682.395 C 288.98,682.531 287.676,683.082 289.32,686.309 L 296.605,703.41 L 303.609,687.547 C 304.848,684.73 304.227,682.738 299.215,682.395 L 299.215,681.16 L 311.16,681.16 L 311.16,682.395 C 308.555,682.875 307.039,684.387 305.738,687.41 L 296.262,708.973 L 294.27,708.973" />
</g><g
     transform="translate(17.933824,-296.90442)"
     style="fill:#000000;fill-rule:nonzero;stroke-width:0;stroke-linecap:butt;stroke-linejoin:miter;stroke-miterlimit:10"
     id="g3142">
	<path
   style="fill:#000000"
   id="path3144"
   d="M 336.781,690.91 L 336.781,689.332 C 334.52,687.062 334.723,680.402 325.449,680.402 C 317.07,680.402 312.195,687.82 312.195,695.102 C 312.195,703.066 317.414,709.18 324.145,709.18 C 329.16,709.18 333.484,705.746 336.371,702.105 L 335.613,701.281 C 333.008,704.371 330.328,705.746 326.895,705.746 C 321.469,705.746 316.453,700.938 316.453,693.797 C 316.453,692.902 316.594,691.941 316.73,690.91 L 336.781,690.91 z M 316.934,689.125 C 318.516,682.738 321.949,681.707 324.219,681.707 C 327.512,681.707 330.258,684.66 331.016,689.125 L 316.934,689.125" />
</g><g
     transform="translate(17.933824,-296.90442)"
     style="fill:#000000;fill-rule:nonzero;stroke-width:0;stroke-linecap:butt;stroke-linejoin:miter;stroke-miterlimit:10"
     id="g3146">
	<path
   style="fill:#000000"
   id="path3148"
   d="M 350.027,703.344 C 350.027,706.156 351.059,707.051 354.488,707.051 L 357.102,707.051 L 357.102,708.355 L 340.82,708.355 L 340.82,707.051 C 344.324,706.98 345.426,705.539 345.426,701.898 L 345.426,686.035 L 340.82,684.387 L 340.82,683.219 L 348.652,680.473 L 350.027,680.473 L 350.027,687.75 L 350.164,687.75 C 353.598,682.121 354.422,680.816 356.688,680.816 C 357.516,680.816 357.719,680.883 359.023,681.434 C 359.711,681.707 360.945,681.98 362.598,682.465 L 360.945,686.582 C 359.914,686.445 358.609,686.102 357.309,685.484 C 356.555,685.141 355.73,684.797 354.902,684.797 C 353.664,684.797 352.91,685.621 352.227,686.582 C 351.332,687.82 350.574,688.988 350.027,690.02 L 350.027,703.344" />
</g><g
     transform="translate(17.933824,-296.90442)"
     style="fill:#000000;fill-rule:nonzero;stroke-width:0;stroke-linecap:butt;stroke-linejoin:miter;stroke-miterlimit:10"
     id="g3150">
	<path
   style="fill:#000000"
   id="path3152"
   d="M 367.34,701.418 C 368.16,705.539 370.77,707.875 373.863,707.875 C 376.605,707.875 378.738,705.813 378.738,703.344 C 378.738,701.898 378.395,701.008 376.539,699.152 C 371.66,694.277 366.238,693.797 366.238,688.094 C 366.238,683.562 369.813,680.402 375.027,680.402 C 376.883,680.402 378.809,680.816 380.523,681.5 L 380.66,687.75 L 379.492,687.75 C 379.012,684.25 376.742,682.051 373.996,682.051 C 371.73,682.051 369.813,683.629 369.813,685.898 C 369.813,691.941 382.582,692.973 382.582,701.352 C 382.582,705.813 378.875,709.18 374.066,709.18 C 372.766,709.18 371.801,708.973 371.047,708.699 C 370.289,708.492 369.742,708.285 369.191,708.285 C 368.777,708.285 368.367,708.563 368.023,709.109 L 366.992,709.109 L 366.238,701.418 L 367.34,701.418" />
</g><g
     transform="translate(17.933824,-296.90442)"
     style="fill:#000000;fill-rule:nonzero;stroke-width:0;stroke-linecap:butt;stroke-linejoin:miter;stroke-miterlimit:10"
     id="g3154">
	<path
   style="fill:#000000"
   id="path3156"
   d="M 394.273,664.605 C 395.926,664.605 397.301,665.773 397.301,667.219 C 397.301,668.66 395.926,669.828 394.273,669.828 C 392.633,669.828 391.324,668.66 391.324,667.219 C 391.324,665.773 392.633,664.605 394.273,664.605 z M 397.094,703.137 C 397.094,705.539 398.398,707.051 402.035,707.051 L 402.035,708.355 L 386.789,708.355 L 386.789,707.051 C 390.98,707.051 392.488,705.676 392.488,702.035 L 392.488,688.234 C 392.488,685.555 392.148,685.211 390.359,684.867 L 387.137,684.25 L 387.137,683.148 L 396.063,680.059 L 397.094,680.059 L 397.094,703.137" />
</g><g
     transform="translate(17.933824,-296.90442)"
     style="fill:#000000;fill-rule:nonzero;stroke-width:0;stroke-linecap:butt;stroke-linejoin:miter;stroke-miterlimit:10"
     id="g3158">
	<path
   style="fill:#000000"
   id="path3160"
   d="M 421.609,681.16 L 420.512,684.18 L 411.789,684.18 L 411.789,700.184 C 411.789,704.508 414.883,705.953 416.32,705.953 C 417.832,705.953 419.207,704.785 420.512,702.516 L 421.609,703.547 C 419.961,707.117 417.281,709.18 414.121,709.18 C 410.07,709.18 407.188,705.813 407.188,701.215 L 407.188,684.18 L 404.027,684.18 L 404.027,683.082 C 406.707,681.777 409.043,678.617 410.621,674.359 L 411.789,674.359 L 411.789,681.16 L 421.609,681.16" />
</g><g
     transform="translate(17.933824,-296.90442)"
     style="fill:#000000;fill-rule:nonzero;stroke-width:0;stroke-linecap:butt;stroke-linejoin:miter;stroke-miterlimit:10"
     id="g3162">
	<path
   style="fill:#000000"
   id="path3164"
   d="M 448.777,688.781 C 450.836,683.562 449.531,682.531 445.48,682.395 L 445.48,681.16 L 456.879,681.16 L 456.879,682.395 C 454.063,682.738 452.484,684.66 451.184,687.887 L 439.508,717.008 C 437.441,722.09 435.863,724.355 433.465,724.355 C 431.813,724.355 430.645,723.328 430.645,721.953 C 430.645,719.137 434.629,719.824 436.348,718.109 C 437.102,717.352 438.133,715.566 438.68,714.191 L 440.738,709.043 L 430.098,686.445 C 428.793,683.629 427.555,682.465 424.672,682.395 L 424.672,681.16 L 438.477,681.16 L 438.477,682.395 C 434.285,682.465 433.809,683.699 435.18,686.582 L 442.938,703.344 L 448.777,688.781" />
</g><g
     transform="translate(17.933824,-296.90442)"
     style="fill:#000000;fill-rule:nonzero;stroke-width:0;stroke-linecap:butt;stroke-linejoin:miter;stroke-miterlimit:10"
     id="g3166">
	<path
   style="fill:#000000"
   id="path3168"
   d="M 472.293,694.965 C 472.293,702.996 478.816,709.18 487.332,709.18 C 495.508,709.18 501.895,702.93 501.895,694.824 C 501.895,686.652 495.508,680.402 487.129,680.402 C 479.984,680.402 472.293,685.484 472.293,694.965 z M 477.441,692.625 C 477.441,686.723 481.633,682.051 486.164,682.051 C 491.934,682.051 496.742,688.715 496.742,696.543 C 496.742,703.41 492.141,707.531 488.09,707.531 C 482.184,707.531 477.441,700.938 477.441,692.625" />
</g><g
     transform="translate(17.933824,-296.90442)"
     style="fill:#000000;fill-rule:nonzero;stroke-width:0;stroke-linecap:butt;stroke-linejoin:miter;stroke-miterlimit:10"
     id="g3170">
	<path
   style="fill:#000000"
   id="path3172"
   d="M 521.809,684.18 L 514.391,684.18 L 514.391,702.996 C 514.391,706.156 515.629,707.051 519.473,707.051 L 522.086,707.051 L 522.086,708.355 L 505.121,708.355 L 505.121,707.051 C 509.105,707.051 509.789,706.156 509.789,702.313 L 509.789,684.18 L 504.707,684.18 L 504.707,683.012 C 506.629,682.602 508.277,681.98 509.789,681.16 C 509.789,675.457 511.027,671.133 515.078,667.078 C 518.441,663.715 521.672,662.203 524.828,662.203 C 528.676,662.203 531.902,664.402 531.902,665.43 C 531.902,665.98 530.602,668.727 530.051,668.727 C 529.09,668.727 526.547,665.363 522.016,665.363 C 517.07,665.363 514.391,669.277 514.391,675.937 L 514.391,681.16 L 521.328,681.16 L 521.809,684.18" />
</g><g
     transform="translate(17.933824,-296.90442)"
     style="fill:#bf2f38;fill-rule:nonzero;stroke-width:0;stroke-linecap:butt;stroke-linejoin:miter;stroke-miterlimit:10;fill-opacity:1"
     id="g3174">
	<path
   style="fill:#bf2f38;fill-opacity:1"
   id="path3176"
   d="M 53.9414,674.707 C 53.3711,671.66 53.6563,665.641 56.6328,659.691 C 45.6523,667.977 45.5117,674.707 45.5117,674.707 C 45.5117,674.707 47.6367,673.078 53.9414,674.707 z M 48.8398,656.574 C 48.8398,656.574 35.5234,658.488 31.6992,658.844 C 29.0625,660.398 26.0352,664.758 26.0352,664.758 C 26.0352,664.758 22.918,665.215 16.6836,666.348 C 12.3516,669.176 9.74219,675.77 15.125,681.152 C 13.4258,680.797 13.4258,680.797 10.9492,680.371 C 5.63672,683.773 8.11328,690.078 19.1641,687.883 C 16.0469,687.773 14.4883,686.254 14.5234,684.27 C 14.4531,682.109 18.668,679.418 23.8008,680.797 C 18.9141,671.555 24.332,667.906 24.332,667.906 C 24.332,667.906 21.4648,675.539 27.7344,681.789 C 28.3008,680.867 30.1758,678.285 35.4531,678.176 C 40.7109,678.07 44.0156,680.656 44.0938,683.633 C 44.1641,686.254 40.8359,689.016 36.5156,689.016 L 36.4453,682.754 C 36.4453,682.754 35.0391,683.258 34.6406,683.812 C 34.6445,684.102 34.6016,689.086 34.6016,689.086 C 32.9023,689.086 29.4336,688.379 27.5938,685.437 C 26.1758,685.297 18.2773,684.125 18.2773,684.125 L 18.7031,686.215 C 18.7031,686.215 21.4648,686.676 21.9961,689.437 C 22.6406,692.781 24.5469,695.848 26.2461,697.09 C 29.5391,696.699 34.9922,692.555 45.0156,692.699 C 35.8086,693.973 26.4609,703.816 13,700.063 C 34.3906,707.359 36.5859,691.141 63.3594,696.238 C 59.1797,693.688 52.9492,692.91 52.9492,692.91 C 52.9492,692.91 56.2773,689.297 56.418,683.773 C 56.8438,683.746 57.4102,683.703 58.4727,683.598 C 58.8281,681.824 59.0742,680.027 59.0742,680.027 C 59.0742,680.027 53.2305,680.02 48.3281,680.02 C 36.3906,667.941 48.8398,656.574 48.8398,656.574 z M 18.9531,656.363 C 22.3164,656.539 26.4063,654.449 26.6719,654.273 C 26.6719,654.273 25.2539,657.852 28.4414,657.637 C 31.9023,657.406 35.8828,655.633 36.4453,655.371 L 36.4453,650.766 C 36.1367,650.992 32.7656,653.375 28.9375,654.238 C 27.5391,654.551 28.0156,653.316 28.1563,652.609 C 28.3008,651.902 28.3945,651.32 25.8906,652.359 C 15.6563,656.609 15.125,653.707 15.125,653.352 C 14.7031,653.848 14.8828,656.148 18.9531,656.363 z M 73.1992,635.047 C 73.1992,635.047 73.1992,707.199 73.1992,708.371 C 43.6992,696.754 31.4102,719.277 0,708.371 C 0,708.703 0,635.047 0,635.047 L 14.9453,635.047 L 14.9453,642.961 L 23.5156,642.961 L 23.5156,635.047 L 31.9453,635.047 L 31.9453,642.961 L 40.4414,642.961 L 40.4453,635.047 L 48.9414,635.047 L 48.9414,642.961 L 58.1836,642.961 L 58.1836,635.047 L 73.1992,635.047" />
</g><g
     transform="translate(17.933824,-296.90442)"
     style="fill:#bf2f38;fill-rule:nonzero;stroke-width:0;stroke-linecap:butt;stroke-linejoin:miter;stroke-miterlimit:10;fill-opacity:1"
     id="g3178">
	<path
   style="fill:#bf2f38;fill-opacity:1"
   id="path3180"
   d="M 101.352,734.781 C 101.352,734.781 101.004,734.609 101.668,734.051 C 101.75,733.984 101.879,734.137 102.266,734.141 C 102.785,734.148 103.059,733.969 103.492,733.445 C 104.145,732.656 102.781,732.352 102.34,732.734 C 101.855,733.148 101.508,733.578 101.09,733.961 C 101.09,733.961 100.391,734.582 101.352,734.781 z M 126.605,771.824 C 125.438,772.777 121.824,774.602 120.922,775.027 C 120.02,775.453 119.727,775.711 119.063,777.027 C 118.246,778.641 117.469,781.563 117.68,781.773 C 119.91,781.422 121.504,779.543 121.504,779.543 C 121.504,779.543 121.539,779.082 121.043,778.301 C 120.633,777.656 121.434,776.957 121.93,777.363 C 122.309,777.676 122.832,777.738 123.152,777.469 C 123.469,777.203 130.43,772.777 130.746,772.266 C 129.332,770.867 128.25,769.449 128.25,769.449 C 128.25,769.449 127.773,770.867 126.605,771.824 z M 99.4063,752.414 C 96.4297,751.211 95.7656,750.406 95.2109,750.164 C 94.7148,749.957 92.668,750.824 92.3242,751.707 C 91.4023,754.078 89.3477,757.957 89.0469,758.508 C 88.8867,758.801 88.7109,759.145 88.7461,759.535 C 88.7813,759.922 88.8984,761.445 88.8633,761.801 C 88.8281,762.156 88.8789,762.617 89.0234,762.969 C 89.1641,763.324 89.3477,764.844 90.1289,766.367 C 91.8633,764.633 92.1172,762.074 92.0039,762.578 C 92.0039,762.594 92.5547,761.645 91.1719,761.215 C 90.7813,761.094 90.8398,760.07 91.2617,759.941 C 91.7773,759.781 92.0391,759.641 92.2891,758.723 C 92.5352,757.797 93.4727,754.488 93.7773,753.852 C 93.8242,753.754 93.9102,753.586 94.082,753.508 C 94.3477,753.383 94.6641,753.297 94.9258,753.254 C 95.0586,753.234 95.3086,753.375 95.3828,753.453 C 95.8555,753.93 98.3086,755.922 98.3086,755.922 C 98.3086,755.922 99.4063,755.816 100.078,755.531 C 99.6563,754.859 99.4766,753.23 99.4063,752.414 z M 96.4063,738.426 C 96.4063,738.426 95.3672,739.703 96.5391,740.02 C 96.5664,740.391 96.7109,741.125 96.8555,741.508 C 97.0508,742.02 97.3867,741.855 97.7617,741.426 C 98.1328,741.004 98.7305,740.195 99.168,739.73 C 99.5664,739.305 100.953,739.457 100.391,740.313 C 100.02,740.879 99.7266,741.031 99.2461,741.137 C 98.8711,741.219 98.7578,740.895 98.3438,741.457 C 97.9102,742.043 97.4492,742.453 98.2109,742.453 C 98.6094,742.453 99.3672,742.824 99.8711,742.742 C 100.348,742.668 100.398,742.359 100.449,741.934 C 100.504,741.488 100.418,741.234 100.914,740.961 C 101.551,740.605 102.488,739.754 102.773,739.453 C 103.098,739.109 103.516,739.188 103.941,739.188 C 104.363,739.188 106.418,739.438 107.641,737.605 C 108.504,736.313 108.598,734.551 108.277,732.957 C 108.863,733.539 109.648,735.379 109.234,737.098 C 108.496,740.164 106.988,740.336 105.461,740.656 C 104.824,741.559 103.195,743.879 102.328,748.098 C 101.957,748.344 98.875,751.316 101.453,756.199 C 100.789,756.414 98.832,757.254 97.6719,757.516 C 96.8945,757.691 96.2422,757.734 95.9258,758.109 C 95.5742,758.531 94.7578,759.914 95.1836,760.605 C 95.4844,761.094 97.4141,765.41 97.5742,766.742 C 97.7344,768.066 98.2148,768.383 98.6914,768.813 C 99.2227,769.289 99.5664,769.266 100.309,769.824 C 101.063,770.387 101.688,771.402 102.383,771.945 C 103.125,772.531 103.957,772.797 104.543,772.742 C 104.398,770.582 103.938,768.457 103.266,767.75 C 102.566,767.016 101.691,768.066 101.48,768.121 C 101.266,768.176 100.969,767.969 100.84,767.379 C 100.707,766.766 101.266,766.262 100.734,765.465 C 99.7461,763.984 98.8047,762.316 98.6914,762.09 C 98,760.738 99.1719,760.379 99.4609,760.445 C 100.152,760.605 104.293,761.164 104.93,761.215 C 105.566,761.27 105.922,761.375 106.207,761.055 C 107.082,760.074 107.586,759.355 108.094,758.348 C 109.02,759.039 108.383,760.367 108.117,761.941 C 108.383,762.172 114.387,765.199 122.641,763.004 C 126.086,762.09 125.691,762.813 126.02,763.445 C 128.02,767.324 129.438,768.824 131.813,770.727 C 132.52,771.289 133.016,772.211 133.332,772.742 C 133.652,773.273 133.73,774.219 133.477,774.832 C 133.156,775.594 131.313,778.898 130.996,779.363 C 130.395,780.25 129.609,780.992 128.941,781.348 C 126.852,782.465 126.332,783.465 126.102,784.246 C 126.578,784.246 131.465,784.246 131.465,784.246 C 131.465,784.246 131.59,783.965 131.527,783.297 C 131.438,782.359 132.289,782.199 132.555,782.145 C 132.82,782.094 133.297,782.305 133.723,781.297 C 134.52,779.398 137.637,774.105 137.902,773.629 C 138.168,773.148 139.141,771.871 138.184,771.309 C 136.379,770.246 135.316,768.5 134.961,766.543 C 134.82,765.766 134.906,764.484 136.66,762.297 C 140.414,757.621 137.617,747.988 129.262,748.164 C 124.52,748.266 121.883,747.863 118.797,747.246 C 117.668,747.02 117.473,746.41 117.715,745.723 C 117.965,745.016 118.203,743.605 118.211,743.031 C 117.398,742.285 116.156,741.828 115.555,741.613 C 114.906,741.387 114.582,740.867 115.238,740.816 C 115.891,740.766 118.371,741.031 118.371,741.031 C 118.371,741.031 118.461,739.703 118.105,737.754 C 117.043,737.293 115.695,736.902 114.281,736.727 C 113.906,736.68 113.578,736.262 114.527,736.125 C 115.77,735.949 116.902,736.145 117.785,736.09 C 117.84,735.984 117.363,733.504 116.484,732.504 C 115.875,732.32 115.551,732.234 113.43,731.98 C 112.688,731.895 112.652,731.68 113.148,731.52 C 113.723,731.336 114.68,731.148 115.875,731.227 C 115.414,730.594 112.332,724.973 105.941,726.66 C 106.656,727.539 107.004,727.945 107.215,728.547 C 107.406,729.086 106.836,729.258 106.313,728.707 C 104.293,726.582 103.23,726.633 101.93,726.395 C 102.781,727.219 103.152,728.043 103.445,728.863 C 101.984,729.902 99.9102,732.371 99.6172,732.852 C 99.0625,733.758 99.832,734.25 99.832,734.25 L 96.4063,738.426 z M 137.707,724.191 C 131.172,726.477 132.137,733.52 133.898,736.23 C 136.203,739.773 138.148,739.844 139.617,744.004 C 140.766,747.25 138.715,748.945 136.695,749.688 C 140.148,751.816 143.711,749.617 144.984,747.492 C 147.332,744.363 144.672,740.301 147.18,738.18 C 147.852,737.613 148.984,737.223 150.508,737.152 C 148.984,734.992 145.41,735.238 143.977,737.258 C 142.965,734.922 140.133,732.879 141.16,729.254 C 141.832,726.883 145.586,725.996 147.004,727.945 C 147.777,729.012 147.887,731.098 145.621,732.16 C 147.039,732.055 149.73,729.609 147.887,726.281 C 146.594,723.941 144.418,723.766 142.648,723.766 C 139.426,723.766 134.078,727.449 137.496,735.398 C 135.527,733.648 132.344,727.539 137.707,724.191 z M 154.008,715.914 C 154.008,714.742 154.008,789.324 154.008,789.328 C 113.426,799.207 112.254,777.641 80.8047,789.328 C 80.8086,790.281 80.793,715.906 80.8047,715.914 C 109.703,703.801 120.965,726.75 154.008,715.914" />
</g><g
     transform="translate(17.933824,-296.90442)"
     style="fill:#bf2f38;fill-rule:nonzero;stroke-width:0;stroke-linecap:butt;stroke-linejoin:miter;stroke-miterlimit:10;fill-opacity:1"
     id="g3182">
	<path
   style="fill:#bf2f38;fill-opacity:1"
   id="path3184"
   d="M 26.6289,757.797 C 26.6289,757.797 25.3438,758.633 26.9531,762.164 C 28.5625,765.688 30.5586,768.973 27.082,772.848 C 29.0547,772.871 33.3555,770.273 28.7539,762.531 C 27.6953,760.746 26.5508,759.512 26.6289,757.797 z M 22.2773,759.457 C 23.3398,759.387 23.4727,758.082 23.2813,757.398 C 23.0547,756.59 21.707,756.488 21.3789,757.52 C 21.0586,758.539 21.3398,759.527 21.3398,759.527 C 21.6055,760.512 22.7109,760.789 22.8086,760.691 C 22.1914,760.141 22.3594,759.824 22.2773,759.457 z M 23.2969,764.145 C 23.043,767.262 21.2539,767.723 21.2539,767.723 C 18.1328,766.289 16.4609,770.215 19.0781,771.371 C 22.3984,772.84 24.4258,768.551 24.625,767.758 C 25.1836,765.508 25.2383,763.918 24.9844,760.27 C 24.7734,757.156 25.5391,756.688 26.0508,756.602 C 26.5664,756.516 27.6328,756.473 28.6953,759.715 C 29.7617,762.957 32.0625,763.426 32.0625,763.426 C 32.0625,763.426 28.7305,758.004 33.3633,753 C 35.5195,750.676 39.9102,749.352 39.0977,746.094 C 39.0977,746.094 38.418,747.262 37.0977,747.605 C 35.7773,747.945 33.2148,748.328 33.2148,748.328 C 33.2148,748.328 39.3594,745.43 40.4648,742.102 C 40.4648,742.102 42.3867,745.301 39.8281,749.992 C 39.8281,749.992 42.2617,749.121 44.8867,750.305 C 51.5703,753.266 50.8594,762.785 42.4023,765.055 C 30.3672,768.285 34.7383,777.594 41.6289,778.164 C 40.8906,777.695 40.7227,774.891 41.9336,773.223 C 42.5352,772.684 43.6172,771.598 44.3008,773.883 C 45.5117,777.914 49.043,778.242 50.6836,777.738 C 50.2539,777.375 49.4492,776.148 49.5469,775.441 C 49.75,774.031 51.5117,775.496 52.1523,775.68 C 56.8945,777.023 59.4141,775.848 59.6836,775.141 C 58.625,774.922 58.8086,775.039 58.1367,774.871 C 57.5117,774.715 56.293,773.848 58.5742,773.324 C 62.7617,772.367 65.0664,768.047 62.3086,764.719 C 59.6758,761.539 56.3594,762.027 55.2813,762.465 C 59.8203,763.441 60.0469,767.094 57.7344,768.953 C 55.7188,770.469 50.707,771.07 48.9922,767.711 C 47.9102,768.492 47.5313,769.746 47.7148,771.309 C 47.2617,771.137 45.3594,768.434 48.1836,766.199 C 61.2813,757.754 59.168,743.566 48.0859,737.727 L 47.9453,737.668 C 37.8906,731.891 29.0938,737.164 29.0938,737.164 C 35.3125,730.938 46.0547,734.641 47.6016,735.414 C 47.6016,735.414 46.3633,734.34 45.707,733.352 C 44.8555,732.074 44.8867,730.852 44.8867,730.852 C 40.6211,733.234 39.5234,729.578 39.5234,729.578 C 39.5234,729.578 35.8281,732.906 33.4297,730.199 C 31.3359,727.828 34.7305,724.613 34.7305,724.613 C 13.0938,731.715 17.1953,743.934 17.1953,743.934 C 17.1953,743.934 14.0625,746.809 13.3594,753.746 C 12.5625,761.621 16.4883,767.223 21.3906,765.684 C 22.5156,765.332 23.0703,764.797 23.2891,764.207 L 23.2969,764.145 z M 73.2031,715.914 C 73.2148,715.906 73.1992,790.281 73.2031,789.328 C 41.7539,777.641 40.5859,799.207 0,789.328 C 0,789.324 0,714.742 0,715.914 C 33.0391,726.75 44.3047,703.801 73.2031,715.914" />
</g></g>
</g>
</g></svg>
